<mxfile host="app.diagrams.net" modified="2022-06-03T14:37:22.193Z" agent="5.0 (Windows NT 10.0; Win64; x64) AppleWebKit/537.36 (KHTML, like Gecko) Chrome/102.0.0.0 Safari/537.36" etag="CaexakEBMoYn6C7n0KUD" version="18.2.1" type="github">
  <diagram id="3fy6NsMSflnJY4ityJ6Z" name="Page-1">
    <mxGraphModel dx="991" dy="762" grid="1" gridSize="10" guides="1" tooltips="1" connect="1" arrows="1" fold="1" page="1" pageScale="1" pageWidth="827" pageHeight="1169" math="0" shadow="0">
      <root>
        <mxCell id="0" />
        <mxCell id="1" parent="0" />
        <mxCell id="r7q5pXmHrla4EEXDN1hH-1" style="rounded=0;orthogonalLoop=1;jettySize=auto;html=1;exitX=1;exitY=0.5;exitDx=0;exitDy=0;elbow=vertical;entryX=0;entryY=0.5;entryDx=0;entryDy=0;" edge="1" parent="1" source="1Q4NAsf0Q_VvP6c2lQT5-14" target="1Q4NAsf0Q_VvP6c2lQT5-15">
          <mxGeometry relative="1" as="geometry">
            <mxPoint x="220" y="360" as="targetPoint" />
          </mxGeometry>
        </mxCell>
        <mxCell id="1Q4NAsf0Q_VvP6c2lQT5-14" value="&lt;font style=&quot;vertical-align: inherit;&quot;&gt;&lt;font style=&quot;vertical-align: inherit;&quot;&gt;1.技术选型&lt;/font&gt;&lt;/font&gt;" style="rounded=0;whiteSpace=wrap;html=1;" parent="1" vertex="1">
          <mxGeometry x="110" y="330" width="109" height="60" as="geometry" />
        </mxCell>
        <mxCell id="r7q5pXmHrla4EEXDN1hH-2" style="edgeStyle=none;rounded=0;orthogonalLoop=1;jettySize=auto;html=1;exitX=1;exitY=0.5;exitDx=0;exitDy=0;elbow=vertical;" edge="1" parent="1" source="1Q4NAsf0Q_VvP6c2lQT5-15" target="1Q4NAsf0Q_VvP6c2lQT5-16">
          <mxGeometry relative="1" as="geometry" />
        </mxCell>
        <mxCell id="1Q4NAsf0Q_VvP6c2lQT5-15" value="&lt;font style=&quot;vertical-align: inherit;&quot;&gt;&lt;font style=&quot;vertical-align: inherit;&quot;&gt;2.搭建项目框架&lt;/font&gt;&lt;/font&gt;" style="rounded=0;whiteSpace=wrap;html=1;" parent="1" vertex="1">
          <mxGeometry x="310" y="330" width="120" height="60" as="geometry" />
        </mxCell>
        <mxCell id="r7q5pXmHrla4EEXDN1hH-3" style="edgeStyle=none;rounded=0;orthogonalLoop=1;jettySize=auto;html=1;exitX=1;exitY=0.5;exitDx=0;exitDy=0;elbow=vertical;" edge="1" parent="1" source="1Q4NAsf0Q_VvP6c2lQT5-16" target="Yxn0PK8yJ3KyifSdcUVZ-3">
          <mxGeometry relative="1" as="geometry" />
        </mxCell>
        <mxCell id="1Q4NAsf0Q_VvP6c2lQT5-16" value="&lt;font style=&quot;vertical-align: inherit;&quot;&gt;&lt;font style=&quot;vertical-align: inherit;&quot;&gt;3.编写源代码&lt;/font&gt;&lt;/font&gt;" style="whiteSpace=wrap;html=1;" parent="1" vertex="1">
          <mxGeometry x="556" y="330" width="120" height="60" as="geometry" />
        </mxCell>
        <mxCell id="1Q4NAsf0Q_VvP6c2lQT5-17" value="5.项目上线" style="whiteSpace=wrap;html=1;" parent="1" vertex="1">
          <mxGeometry x="1071" y="330" width="120" height="60" as="geometry" />
        </mxCell>
        <mxCell id="r7q5pXmHrla4EEXDN1hH-5" style="edgeStyle=none;rounded=0;orthogonalLoop=1;jettySize=auto;html=1;exitX=0.5;exitY=0;exitDx=0;exitDy=0;entryX=0.5;entryY=1;entryDx=0;entryDy=0;elbow=vertical;dashed=1;" edge="1" parent="1" source="Yxn0PK8yJ3KyifSdcUVZ-1" target="1Q4NAsf0Q_VvP6c2lQT5-14">
          <mxGeometry relative="1" as="geometry" />
        </mxCell>
        <mxCell id="Yxn0PK8yJ3KyifSdcUVZ-1" value="&lt;div style=&quot;text-align: left;&quot;&gt;&lt;span style=&quot;background-color: initial;&quot;&gt;&lt;font style=&quot;vertical-align: inherit;&quot;&gt;&lt;font style=&quot;vertical-align: inherit;&quot;&gt;1.选择前端框架&lt;/font&gt;&lt;/font&gt;&lt;/span&gt;&lt;/div&gt;&lt;font style=&quot;vertical-align: inherit;&quot;&gt;&lt;div style=&quot;text-align: left;&quot;&gt;&lt;span style=&quot;background-color: initial;&quot;&gt;&lt;font style=&quot;vertical-align: inherit;&quot;&gt;&lt;font style=&quot;vertical-align: inherit;&quot;&gt;2.选择构建工具&lt;/font&gt;&lt;/font&gt;&lt;/span&gt;&lt;/div&gt;&lt;/font&gt;" style="rounded=1;whiteSpace=wrap;html=1;" parent="1" vertex="1">
          <mxGeometry x="104.5" y="450" width="120" height="60" as="geometry" />
        </mxCell>
        <mxCell id="r7q5pXmHrla4EEXDN1hH-6" style="edgeStyle=none;rounded=0;orthogonalLoop=1;jettySize=auto;html=1;exitX=0.5;exitY=0;exitDx=0;exitDy=0;entryX=0.5;entryY=1;entryDx=0;entryDy=0;elbow=vertical;dashed=1;" edge="1" parent="1" source="Yxn0PK8yJ3KyifSdcUVZ-2" target="1Q4NAsf0Q_VvP6c2lQT5-15">
          <mxGeometry relative="1" as="geometry" />
        </mxCell>
        <mxCell id="Yxn0PK8yJ3KyifSdcUVZ-2" value="&lt;div style=&quot;text-align: left;&quot;&gt;&lt;span style=&quot;background-color: initial;&quot;&gt;1. 配置框架的配置文件&lt;/span&gt;&lt;/div&gt;&lt;div style=&quot;text-align: left;&quot;&gt;&lt;span style=&quot;background-color: initial;&quot;&gt;2.配置构建工具的配置文件（eslint）&lt;/span&gt;&lt;/div&gt;" style="rounded=1;whiteSpace=wrap;html=1;" parent="1" vertex="1">
          <mxGeometry x="265" y="450" width="210" height="60" as="geometry" />
        </mxCell>
        <mxCell id="r7q5pXmHrla4EEXDN1hH-4" style="edgeStyle=none;rounded=0;orthogonalLoop=1;jettySize=auto;html=1;exitX=1;exitY=0.5;exitDx=0;exitDy=0;elbow=vertical;entryX=0;entryY=0.5;entryDx=0;entryDy=0;" edge="1" parent="1" source="Yxn0PK8yJ3KyifSdcUVZ-3" target="1Q4NAsf0Q_VvP6c2lQT5-17">
          <mxGeometry relative="1" as="geometry">
            <mxPoint x="1020" y="360" as="targetPoint" />
          </mxGeometry>
        </mxCell>
        <mxCell id="Yxn0PK8yJ3KyifSdcUVZ-3" value="4.前后端联调" style="rounded=0;whiteSpace=wrap;html=1;" parent="1" vertex="1">
          <mxGeometry x="806" y="330" width="120" height="60" as="geometry" />
        </mxCell>
        <mxCell id="r7q5pXmHrla4EEXDN1hH-9" style="edgeStyle=none;rounded=0;orthogonalLoop=1;jettySize=auto;html=1;exitX=0.5;exitY=0;exitDx=0;exitDy=0;entryX=0.5;entryY=1;entryDx=0;entryDy=0;elbow=vertical;dashed=1;" edge="1" parent="1" source="Yxn0PK8yJ3KyifSdcUVZ-5" target="1Q4NAsf0Q_VvP6c2lQT5-17">
          <mxGeometry relative="1" as="geometry" />
        </mxCell>
        <mxCell id="Yxn0PK8yJ3KyifSdcUVZ-5" value="1.nginx 配置&amp;nbsp;&lt;br&gt;2. docker 使用&amp;nbsp; （多环境部署）&lt;br&gt;&lt;div style=&quot;&quot;&gt;&lt;span style=&quot;background-color: initial;&quot;&gt;3. shell脚本编写 （自动化脚本）&lt;/span&gt;&lt;/div&gt;&lt;div style=&quot;&quot;&gt;&lt;span style=&quot;background-color: initial;&quot;&gt;4.linux 系统使用&amp;nbsp;&lt;/span&gt;&lt;/div&gt;" style="rounded=1;whiteSpace=wrap;html=1;align=left;" parent="1" vertex="1">
          <mxGeometry x="1021" y="440" width="220" height="80" as="geometry" />
        </mxCell>
        <mxCell id="r7q5pXmHrla4EEXDN1hH-7" style="edgeStyle=none;rounded=0;orthogonalLoop=1;jettySize=auto;html=1;exitX=0.5;exitY=0;exitDx=0;exitDy=0;entryX=0.5;entryY=1;entryDx=0;entryDy=0;elbow=vertical;dashed=1;" edge="1" parent="1" source="Yxn0PK8yJ3KyifSdcUVZ-6" target="1Q4NAsf0Q_VvP6c2lQT5-16">
          <mxGeometry relative="1" as="geometry" />
        </mxCell>
        <mxCell id="Yxn0PK8yJ3KyifSdcUVZ-6" value="1. 看得懂数据库&lt;br&gt;2.会使用postman等接口工具&lt;br&gt;3.JavaScript高级&lt;br&gt;4. TypeScript高级&lt;br&gt;5. css预处理语言 （sacc less等）" style="rounded=1;whiteSpace=wrap;html=1;align=left;" parent="1" vertex="1">
          <mxGeometry x="511" y="450" width="210" height="90" as="geometry" />
        </mxCell>
        <mxCell id="r7q5pXmHrla4EEXDN1hH-8" style="edgeStyle=none;rounded=0;orthogonalLoop=1;jettySize=auto;html=1;exitX=0.5;exitY=0;exitDx=0;exitDy=0;entryX=0.5;entryY=1;entryDx=0;entryDy=0;elbow=vertical;dashed=1;" edge="1" parent="1" source="Yxn0PK8yJ3KyifSdcUVZ-7" target="Yxn0PK8yJ3KyifSdcUVZ-3">
          <mxGeometry relative="1" as="geometry" />
        </mxCell>
        <mxCell id="Yxn0PK8yJ3KyifSdcUVZ-7" value="1. 了解 http 请求" style="rounded=1;whiteSpace=wrap;html=1;align=left;" parent="1" vertex="1">
          <mxGeometry x="761" y="450" width="210" height="60" as="geometry" />
        </mxCell>
      </root>
    </mxGraphModel>
  </diagram>
</mxfile>
